<svg width="2200" height="506" viewBox="0 0 2200 506" fill="none" xmlns="http://www.w3.org/2000/svg">
<rect width="2200" height="139" fill="#0C161A"/>
<rect y="139" width="2200" height="236" fill="#26434F"/>
<rect y="375" width="2200" height="131" fill="#1B2F37"/>
<path d="M809.368 75.832V87H807.128V82.248H802.344V87H800.104V75.832H802.344V80.424H807.128V75.832H809.368ZM818.757 87.112C817.711 87.112 816.751 86.8667 815.877 86.376C815.002 85.8853 814.309 85.208 813.797 84.344C813.285 83.4693 813.029 82.4827 813.029 81.384C813.029 80.296 813.285 79.32 813.797 78.456C814.309 77.5813 815.002 76.8987 815.877 76.408C816.751 75.9173 817.711 75.672 818.757 75.672C819.813 75.672 820.773 75.9173 821.637 76.408C822.511 76.8987 823.199 77.5813 823.701 78.456C824.213 79.32 824.469 80.296 824.469 81.384C824.469 82.4827 824.213 83.4693 823.701 84.344C823.199 85.208 822.511 85.8853 821.637 86.376C820.762 86.8667 819.802 87.112 818.757 87.112ZM818.757 85.112C819.429 85.112 820.021 84.9627 820.533 84.664C821.045 84.3547 821.445 83.9173 821.733 83.352C822.021 82.7867 822.165 82.1307 822.165 81.384C822.165 80.6373 822.021 79.9867 821.733 79.432C821.445 78.8667 821.045 78.4347 820.533 78.136C820.021 77.8373 819.429 77.688 818.757 77.688C818.085 77.688 817.487 77.8373 816.965 78.136C816.453 78.4347 816.053 78.8667 815.765 79.432C815.477 79.9867 815.333 80.6373 815.333 81.384C815.333 82.1307 815.477 82.7867 815.765 83.352C816.053 83.9173 816.453 84.3547 816.965 84.664C817.487 84.9627 818.085 85.112 818.757 85.112ZM840.311 75.832V87H838.071V79.736L835.079 87H833.383L830.375 79.736V87H828.135V75.832H830.679L834.231 84.136L837.783 75.832H840.311ZM846.766 77.64V80.44H850.526V82.216H846.766V85.176H851.006V87H844.526V75.816H851.006V77.64H846.766Z" fill="white"/>
<path d="M952.408 311.248H966.104V322H938.2V276.688H952.408V311.248ZM999.631 315.152H984.527L982.287 322H967.375L983.951 276.688H1000.34L1016.85 322H1001.87L999.631 315.152ZM996.175 304.464L992.079 291.856L987.983 304.464H996.175ZM1029.67 299.28C1029.67 294.8 1030.57 290.811 1032.36 287.312C1034.19 283.813 1036.8 281.104 1040.17 279.184C1043.54 277.221 1047.5 276.24 1052.07 276.24C1056 276.24 1059.49 276.987 1062.57 278.48C1065.68 279.931 1068.2 282 1070.12 284.688C1072.08 287.376 1073.38 290.512 1074.02 294.096H1059.05C1058.36 292.603 1057.38 291.451 1056.1 290.64C1054.86 289.787 1053.44 289.36 1051.81 289.36C1049.42 289.36 1047.53 290.256 1046.12 292.048C1044.75 293.84 1044.07 296.251 1044.07 299.28C1044.07 302.309 1044.75 304.72 1046.12 306.512C1047.53 308.304 1049.42 309.2 1051.81 309.2C1053.44 309.2 1054.86 308.795 1056.1 307.984C1057.38 307.131 1058.36 305.957 1059.05 304.464H1074.02C1073.38 308.048 1072.08 311.184 1070.12 313.872C1068.2 316.56 1065.68 318.651 1062.57 320.144C1059.49 321.595 1056 322.32 1052.07 322.32C1047.5 322.32 1043.54 321.36 1040.17 319.44C1036.8 317.477 1034.19 314.747 1032.36 311.248C1030.57 307.749 1029.67 303.76 1029.67 299.28ZM1093.03 276.688V302.224C1093.03 304.315 1093.47 305.979 1094.37 307.216C1095.31 308.411 1096.8 309.008 1098.85 309.008C1100.9 309.008 1102.41 308.411 1103.39 307.216C1104.37 305.979 1104.87 304.315 1104.87 302.224V276.688H1119.01V302.224C1119.01 306.533 1118.11 310.224 1116.32 313.296C1114.53 316.325 1112.08 318.608 1108.96 320.144C1105.85 321.68 1102.37 322.448 1098.53 322.448C1094.69 322.448 1091.28 321.68 1088.29 320.144C1085.35 318.608 1083.04 316.325 1081.38 313.296C1079.71 310.267 1078.88 306.576 1078.88 302.224V276.688H1093.03ZM1147.92 322L1139.41 305.744H1139.35V322H1125.14V276.688H1146.26C1149.93 276.688 1153.06 277.349 1155.67 278.672C1158.27 279.952 1160.21 281.723 1161.49 283.984C1162.81 286.203 1163.47 288.72 1163.47 291.536C1163.47 294.565 1162.62 297.253 1160.91 299.6C1159.25 301.947 1156.84 303.632 1153.68 304.656L1163.54 322H1147.92ZM1139.35 296.272H1144.98C1146.34 296.272 1147.37 295.973 1148.05 295.376C1148.73 294.736 1149.07 293.755 1149.07 292.432C1149.07 291.237 1148.71 290.299 1147.99 289.616C1147.3 288.933 1146.3 288.592 1144.98 288.592H1139.35V296.272ZM1213.64 276.688L1198.41 322H1180.04L1164.81 276.688H1179.92L1189.26 307.856L1198.54 276.688H1213.64ZM1245.88 315.152H1230.78L1228.54 322H1213.62L1230.2 276.688H1246.59L1263.1 322H1248.12L1245.88 315.152ZM1242.43 304.464L1238.33 291.856L1234.23 304.464H1242.43Z" fill="#0C161A"/>
<path d="M1033 255H1001C1001 224 1030 166 1098 166C1166 166 1196 225 1196 255H1166C1163 233.667 1142 197 1098 197C1050.56 197 1035 237.667 1033 255Z" fill="#0C161A"/>
<path d="M912.248 79.288C912.248 79.8853 912.104 80.4453 911.816 80.968C911.539 81.4907 911.096 81.912 910.488 82.232C909.891 82.552 909.133 82.712 908.216 82.712H906.344V87H904.104V75.832H908.216C909.08 75.832 909.816 75.9813 910.424 76.28C911.032 76.5787 911.485 76.9893 911.784 77.512C912.093 78.0347 912.248 78.6267 912.248 79.288ZM908.12 80.904C908.739 80.904 909.197 80.7653 909.496 80.488C909.795 80.2 909.944 79.8 909.944 79.288C909.944 78.2 909.336 77.656 908.12 77.656H906.344V80.904H908.12ZM917.566 75.832V82.744C917.566 83.5013 917.764 84.0827 918.158 84.488C918.553 84.8827 919.108 85.08 919.822 85.08C920.548 85.08 921.108 84.8827 921.502 84.488C921.897 84.0827 922.094 83.5013 922.094 82.744V75.832H924.35V82.728C924.35 83.6773 924.142 84.4827 923.726 85.144C923.321 85.7947 922.772 86.2853 922.078 86.616C921.396 86.9467 920.633 87.112 919.79 87.112C918.958 87.112 918.201 86.9467 917.518 86.616C916.846 86.2853 916.313 85.7947 915.918 85.144C915.524 84.4827 915.326 83.6773 915.326 82.728V75.832H917.566ZM934.371 81.272C935 81.3893 935.517 81.704 935.923 82.216C936.328 82.728 936.531 83.3147 936.531 83.976C936.531 84.5733 936.381 85.1013 936.083 85.56C935.795 86.008 935.373 86.36 934.819 86.616C934.264 86.872 933.608 87 932.851 87H928.035V75.832H932.643C933.4 75.832 934.051 75.9547 934.595 76.2C935.149 76.4453 935.565 76.7867 935.843 77.224C936.131 77.6613 936.275 78.1573 936.275 78.712C936.275 79.3627 936.099 79.9067 935.747 80.344C935.405 80.7813 934.947 81.0907 934.371 81.272ZM930.275 80.44H932.323C932.856 80.44 933.267 80.3227 933.555 80.088C933.843 79.8427 933.987 79.496 933.987 79.048C933.987 78.6 933.843 78.2533 933.555 78.008C933.267 77.7627 932.856 77.64 932.323 77.64H930.275V80.44ZM932.531 85.176C933.075 85.176 933.496 85.048 933.795 84.792C934.104 84.536 934.259 84.1733 934.259 83.704C934.259 83.224 934.099 82.8507 933.779 82.584C933.459 82.3067 933.027 82.168 932.483 82.168H930.275V85.176H932.531ZM942.076 85.224H945.756V87H939.836V75.832H942.076V85.224ZM950.94 75.832V87H948.7V75.832H950.94ZM954.129 81.4C954.129 80.3013 954.374 79.32 954.865 78.456C955.366 77.5813 956.043 76.904 956.897 76.424C957.761 75.9333 958.726 75.688 959.793 75.688C961.041 75.688 962.134 76.008 963.073 76.648C964.011 77.288 964.667 78.1733 965.041 79.304H962.465C962.209 78.7707 961.846 78.3707 961.377 78.104C960.918 77.8373 960.385 77.704 959.777 77.704C959.126 77.704 958.545 77.8587 958.033 78.168C957.531 78.4667 957.137 78.8933 956.849 79.448C956.571 80.0027 956.433 80.6533 956.433 81.4C956.433 82.136 956.571 82.7867 956.849 83.352C957.137 83.9067 957.531 84.3387 958.033 84.648C958.545 84.9467 959.126 85.096 959.777 85.096C960.385 85.096 960.918 84.9627 961.377 84.696C961.846 84.4187 962.209 84.0133 962.465 83.48H965.041C964.667 84.6213 964.011 85.512 963.073 86.152C962.145 86.7813 961.051 87.096 959.793 87.096C958.726 87.096 957.761 86.856 956.897 86.376C956.043 85.8853 955.366 85.208 954.865 84.344C954.374 83.48 954.129 82.4987 954.129 81.4ZM975.322 84.872H970.874L970.138 87H967.786L971.802 75.816H974.41L978.426 87H976.058L975.322 84.872ZM974.714 83.08L973.098 78.408L971.482 83.08H974.714ZM980.903 81.4C980.903 80.3013 981.148 79.32 981.639 78.456C982.14 77.5813 982.818 76.904 983.671 76.424C984.535 75.9333 985.5 75.688 986.567 75.688C987.815 75.688 988.908 76.008 989.847 76.648C990.786 77.288 991.442 78.1733 991.815 79.304H989.239C988.983 78.7707 988.62 78.3707 988.151 78.104C987.692 77.8373 987.159 77.704 986.551 77.704C985.9 77.704 985.319 77.8587 984.807 78.168C984.306 78.4667 983.911 78.8933 983.623 79.448C983.346 80.0027 983.207 80.6533 983.207 81.4C983.207 82.136 983.346 82.7867 983.623 83.352C983.911 83.9067 984.306 84.3387 984.807 84.648C985.319 84.9467 985.9 85.096 986.551 85.096C987.159 85.096 987.692 84.9627 988.151 84.696C988.62 84.4187 988.983 84.0133 989.239 83.48H991.815C991.442 84.6213 990.786 85.512 989.847 86.152C988.919 86.7813 987.826 87.096 986.567 87.096C985.5 87.096 984.535 86.856 983.671 86.376C982.818 85.8853 982.14 85.208 981.639 84.344C981.148 83.48 980.903 82.4987 980.903 81.4ZM997.488 75.832V87H995.248V75.832H997.488ZM1006.41 87.112C1005.36 87.112 1004.4 86.8667 1003.53 86.376C1002.65 85.8853 1001.96 85.208 1001.45 84.344C1000.93 83.4693 1000.68 82.4827 1000.68 81.384C1000.68 80.296 1000.93 79.32 1001.45 78.456C1001.96 77.5813 1002.65 76.8987 1003.53 76.408C1004.4 75.9173 1005.36 75.672 1006.41 75.672C1007.46 75.672 1008.42 75.9173 1009.29 76.408C1010.16 76.8987 1010.85 77.5813 1011.35 78.456C1011.86 79.32 1012.12 80.296 1012.12 81.384C1012.12 82.4827 1011.86 83.4693 1011.35 84.344C1010.85 85.208 1010.16 85.8853 1009.29 86.376C1008.41 86.8667 1007.45 87.112 1006.41 87.112ZM1006.41 85.112C1007.08 85.112 1007.67 84.9627 1008.18 84.664C1008.69 84.3547 1009.09 83.9173 1009.38 83.352C1009.67 82.7867 1009.81 82.1307 1009.81 81.384C1009.81 80.6373 1009.67 79.9867 1009.38 79.432C1009.09 78.8667 1008.69 78.4347 1008.18 78.136C1007.67 77.8373 1007.08 77.688 1006.41 77.688C1005.73 77.688 1005.14 77.8373 1004.61 78.136C1004.1 78.4347 1003.7 78.8667 1003.41 79.432C1003.13 79.9867 1002.98 80.6373 1002.98 81.384C1002.98 82.1307 1003.13 82.7867 1003.41 83.352C1003.7 83.9173 1004.1 84.3547 1004.61 84.664C1005.14 84.9627 1005.73 85.112 1006.41 85.112ZM1024.86 87H1022.62L1017.54 79.336V87H1015.3V75.816H1017.54L1022.62 83.496V75.816H1024.86V87ZM1030.83 77.64V80.44H1034.59V82.216H1030.83V85.176H1035.07V87H1028.59V75.816H1035.07V77.64H1030.83ZM1042.48 87.112C1041.7 87.112 1041 86.9787 1040.37 86.712C1039.75 86.4453 1039.26 86.0613 1038.9 85.56C1038.53 85.0587 1038.35 84.4667 1038.34 83.784H1040.74C1040.77 84.2427 1040.93 84.6053 1041.22 84.872C1041.52 85.1387 1041.92 85.272 1042.43 85.272C1042.96 85.272 1043.37 85.1493 1043.67 84.904C1043.96 84.648 1044.11 84.3173 1044.11 83.912C1044.11 83.5813 1044.01 83.3093 1043.81 83.096C1043.61 82.8827 1043.35 82.7173 1043.04 82.6C1042.74 82.472 1042.33 82.3333 1041.79 82.184C1041.07 81.9707 1040.48 81.7627 1040.02 81.56C1039.57 81.3467 1039.18 81.032 1038.85 80.616C1038.53 80.1893 1038.37 79.624 1038.37 78.92C1038.37 78.2587 1038.53 77.6827 1038.87 77.192C1039.2 76.7013 1039.66 76.328 1040.26 76.072C1040.85 75.8053 1041.54 75.672 1042.31 75.672C1043.46 75.672 1044.39 75.9547 1045.11 76.52C1045.83 77.0747 1046.23 77.8533 1046.31 78.856H1043.84C1043.82 78.472 1043.65 78.1573 1043.35 77.912C1043.05 77.656 1042.65 77.528 1042.15 77.528C1041.71 77.528 1041.36 77.64 1041.09 77.864C1040.83 78.088 1040.71 78.4133 1040.71 78.84C1040.71 79.1387 1040.8 79.3893 1040.99 79.592C1041.2 79.784 1041.44 79.944 1041.73 80.072C1042.03 80.1893 1042.44 80.328 1042.98 80.488C1043.7 80.7013 1044.29 80.9147 1044.75 81.128C1045.21 81.3413 1045.61 81.6613 1045.94 82.088C1046.27 82.5147 1046.43 83.0747 1046.43 83.768C1046.43 84.3653 1046.28 84.92 1045.97 85.432C1045.66 85.944 1045.21 86.3547 1044.61 86.664C1044.01 86.9627 1043.3 87.112 1042.48 87.112Z" fill="white"/>
<path d="M1109.42 88.968L1107.73 86.936C1107.26 87.0533 1106.78 87.112 1106.29 87.112C1105.24 87.112 1104.28 86.8667 1103.41 86.376C1102.53 85.8853 1101.84 85.208 1101.33 84.344C1100.82 83.4693 1100.56 82.4827 1100.56 81.384C1100.56 80.296 1100.82 79.32 1101.33 78.456C1101.84 77.5813 1102.53 76.8987 1103.41 76.408C1104.28 75.9173 1105.24 75.672 1106.29 75.672C1107.34 75.672 1108.3 75.9173 1109.17 76.408C1110.04 76.8987 1110.73 77.5813 1111.23 78.456C1111.74 79.32 1112 80.296 1112 81.384C1112 82.376 1111.79 83.2827 1111.36 84.104C1110.94 84.9147 1110.37 85.576 1109.65 86.088L1112.21 88.968H1109.42ZM1102.86 81.384C1102.86 82.1307 1103.01 82.7867 1103.3 83.352C1103.58 83.9173 1103.98 84.3547 1104.5 84.664C1105.02 84.9627 1105.62 85.112 1106.29 85.112C1106.96 85.112 1107.55 84.9627 1108.06 84.664C1108.58 84.3547 1108.98 83.9173 1109.26 83.352C1109.55 82.7867 1109.7 82.1307 1109.7 81.384C1109.7 80.6373 1109.55 79.9867 1109.26 79.432C1108.98 78.8667 1108.58 78.4347 1108.06 78.136C1107.55 77.8373 1106.96 77.688 1106.29 77.688C1105.62 77.688 1105.02 77.8373 1104.5 78.136C1103.98 78.4347 1103.58 78.8667 1103.3 79.432C1103.01 79.9867 1102.86 80.6373 1102.86 81.384ZM1117.35 75.832V82.744C1117.35 83.5013 1117.54 84.0827 1117.94 84.488C1118.33 84.8827 1118.89 85.08 1119.6 85.08C1120.33 85.08 1120.89 84.8827 1121.28 84.488C1121.68 84.0827 1121.87 83.5013 1121.87 82.744V75.832H1124.13V82.728C1124.13 83.6773 1123.92 84.4827 1123.51 85.144C1123.1 85.7947 1122.55 86.2853 1121.86 86.616C1121.18 86.9467 1120.41 87.112 1119.57 87.112C1118.74 87.112 1117.98 86.9467 1117.3 86.616C1116.63 86.2853 1116.09 85.7947 1115.7 85.144C1115.3 84.4827 1115.11 83.6773 1115.11 82.728V75.832H1117.35ZM1129.97 75.832V87H1127.73V75.832H1129.97ZM1135.87 77.64V80.44H1139.63V82.216H1135.87V85.176H1140.11V87H1133.63V75.816H1140.11V77.64H1135.87ZM1153.13 87H1150.89L1145.82 79.336V87H1143.58V75.816H1145.82L1150.89 83.496V75.816H1153.13V87ZM1159.03 77.64V80.44H1162.79V82.216H1159.03V85.176H1163.27V87H1156.79V75.816H1163.27V77.64H1159.03ZM1170.6 87.112C1169.82 87.112 1169.12 86.9787 1168.49 86.712C1167.87 86.4453 1167.38 86.0613 1167.02 85.56C1166.65 85.0587 1166.47 84.4667 1166.46 83.784H1168.86C1168.89 84.2427 1169.05 84.6053 1169.34 84.872C1169.63 85.1387 1170.04 85.272 1170.55 85.272C1171.07 85.272 1171.49 85.1493 1171.78 84.904C1172.08 84.648 1172.23 84.3173 1172.23 83.912C1172.23 83.5813 1172.13 83.3093 1171.93 83.096C1171.73 82.8827 1171.47 82.7173 1171.16 82.6C1170.86 82.472 1170.45 82.3333 1169.91 82.184C1169.19 81.9707 1168.59 81.7627 1168.14 81.56C1167.69 81.3467 1167.3 81.032 1166.97 80.616C1166.65 80.1893 1166.49 79.624 1166.49 78.92C1166.49 78.2587 1166.65 77.6827 1166.98 77.192C1167.31 76.7013 1167.78 76.328 1168.38 76.072C1168.97 75.8053 1169.66 75.672 1170.42 75.672C1171.58 75.672 1172.51 75.9547 1173.22 76.52C1173.95 77.0747 1174.35 77.8533 1174.42 78.856H1171.96C1171.94 78.472 1171.77 78.1573 1171.46 77.912C1171.17 77.656 1170.77 77.528 1170.26 77.528C1169.83 77.528 1169.47 77.64 1169.21 77.864C1168.95 78.088 1168.82 78.4133 1168.82 78.84C1168.82 79.1387 1168.92 79.3893 1169.11 79.592C1169.31 79.784 1169.56 79.944 1169.85 80.072C1170.15 80.1893 1170.56 80.328 1171.1 80.488C1171.82 80.7013 1172.41 80.9147 1172.87 81.128C1173.33 81.3413 1173.73 81.6613 1174.06 82.088C1174.39 82.5147 1174.55 83.0747 1174.55 83.768C1174.55 84.3653 1174.4 84.92 1174.09 85.432C1173.78 85.944 1173.33 86.3547 1172.73 86.664C1172.13 86.9627 1171.42 87.112 1170.6 87.112ZM1187.04 87.112C1186.26 87.112 1185.56 86.9787 1184.93 86.712C1184.31 86.4453 1183.82 86.0613 1183.46 85.56C1183.1 85.0587 1182.91 84.4667 1182.9 83.784H1185.3C1185.33 84.2427 1185.49 84.6053 1185.78 84.872C1186.08 85.1387 1186.48 85.272 1186.99 85.272C1187.52 85.272 1187.93 85.1493 1188.23 84.904C1188.53 84.648 1188.67 84.3173 1188.67 83.912C1188.67 83.5813 1188.57 83.3093 1188.37 83.096C1188.17 82.8827 1187.91 82.7173 1187.6 82.6C1187.3 82.472 1186.89 82.3333 1186.35 82.184C1185.63 81.9707 1185.04 81.7627 1184.58 81.56C1184.13 81.3467 1183.74 81.032 1183.41 80.616C1183.09 80.1893 1182.93 79.624 1182.93 78.92C1182.93 78.2587 1183.1 77.6827 1183.43 77.192C1183.76 76.7013 1184.22 76.328 1184.82 76.072C1185.42 75.8053 1186.1 75.672 1186.87 75.672C1188.02 75.672 1188.95 75.9547 1189.67 76.52C1190.39 77.0747 1190.79 77.8533 1190.87 78.856H1188.4C1188.38 78.472 1188.22 78.1573 1187.91 77.912C1187.61 77.656 1187.21 77.528 1186.71 77.528C1186.27 77.528 1185.92 77.64 1185.65 77.864C1185.39 78.088 1185.27 78.4133 1185.27 78.84C1185.27 79.1387 1185.36 79.3893 1185.55 79.592C1185.76 79.784 1186 79.944 1186.29 80.072C1186.59 80.1893 1187.01 80.328 1187.54 80.488C1188.26 80.7013 1188.86 80.9147 1189.31 81.128C1189.77 81.3413 1190.17 81.6613 1190.5 82.088C1190.83 82.5147 1190.99 83.0747 1190.99 83.768C1190.99 84.3653 1190.84 84.92 1190.53 85.432C1190.22 85.944 1189.77 86.3547 1189.17 86.664C1188.57 86.9627 1187.86 87.112 1187.04 87.112ZM1199.56 87.112C1198.52 87.112 1197.56 86.8667 1196.68 86.376C1195.81 85.8853 1195.11 85.208 1194.6 84.344C1194.09 83.4693 1193.83 82.4827 1193.83 81.384C1193.83 80.296 1194.09 79.32 1194.6 78.456C1195.11 77.5813 1195.81 76.8987 1196.68 76.408C1197.56 75.9173 1198.52 75.672 1199.56 75.672C1200.62 75.672 1201.58 75.9173 1202.44 76.408C1203.32 76.8987 1204 77.5813 1204.5 78.456C1205.02 79.32 1205.27 80.296 1205.27 81.384C1205.27 82.4827 1205.02 83.4693 1204.5 84.344C1204 85.208 1203.32 85.8853 1202.44 86.376C1201.57 86.8667 1200.61 87.112 1199.56 87.112ZM1199.56 85.112C1200.23 85.112 1200.82 84.9627 1201.34 84.664C1201.85 84.3547 1202.25 83.9173 1202.54 83.352C1202.82 82.7867 1202.97 82.1307 1202.97 81.384C1202.97 80.6373 1202.82 79.9867 1202.54 79.432C1202.25 78.8667 1201.85 78.4347 1201.34 78.136C1200.82 77.8373 1200.23 77.688 1199.56 77.688C1198.89 77.688 1198.29 77.8373 1197.77 78.136C1197.26 78.4347 1196.86 78.8667 1196.57 79.432C1196.28 79.9867 1196.14 80.6373 1196.14 81.384C1196.14 82.1307 1196.28 82.7867 1196.57 83.352C1196.86 83.9173 1197.26 84.3547 1197.77 84.664C1198.29 84.9627 1198.89 85.112 1199.56 85.112ZM1220.56 75.832V87H1218.32V79.736L1215.32 87H1213.63L1210.62 79.736V87H1208.38V75.832H1210.92L1214.48 84.136L1218.03 75.832H1220.56ZM1229.39 87.112C1228.35 87.112 1227.39 86.8667 1226.51 86.376C1225.64 85.8853 1224.95 85.208 1224.43 84.344C1223.92 83.4693 1223.67 82.4827 1223.67 81.384C1223.67 80.296 1223.92 79.32 1224.43 78.456C1224.95 77.5813 1225.64 76.8987 1226.51 76.408C1227.39 75.9173 1228.35 75.672 1229.39 75.672C1230.45 75.672 1231.41 75.9173 1232.27 76.408C1233.15 76.8987 1233.84 77.5813 1234.34 78.456C1234.85 79.32 1235.11 80.296 1235.11 81.384C1235.11 82.4827 1234.85 83.4693 1234.34 84.344C1233.84 85.208 1233.15 85.8853 1232.27 86.376C1231.4 86.8667 1230.44 87.112 1229.39 87.112ZM1229.39 85.112C1230.07 85.112 1230.66 84.9627 1231.17 84.664C1231.68 84.3547 1232.08 83.9173 1232.37 83.352C1232.66 82.7867 1232.8 82.1307 1232.8 81.384C1232.8 80.6373 1232.66 79.9867 1232.37 79.432C1232.08 78.8667 1231.68 78.4347 1231.17 78.136C1230.66 77.8373 1230.07 77.688 1229.39 77.688C1228.72 77.688 1228.12 77.8373 1227.6 78.136C1227.09 78.4347 1226.69 78.8667 1226.4 79.432C1226.11 79.9867 1225.97 80.6373 1225.97 81.384C1225.97 82.1307 1226.11 82.7867 1226.4 83.352C1226.69 83.9173 1227.09 84.3547 1227.6 84.664C1228.12 84.9627 1228.72 85.112 1229.39 85.112ZM1242.07 87.112C1241.29 87.112 1240.59 86.9787 1239.96 86.712C1239.34 86.4453 1238.85 86.0613 1238.48 85.56C1238.12 85.0587 1237.93 84.4667 1237.92 83.784H1240.32C1240.36 84.2427 1240.52 84.6053 1240.8 84.872C1241.1 85.1387 1241.51 85.272 1242.02 85.272C1242.54 85.272 1242.95 85.1493 1243.25 84.904C1243.55 84.648 1243.7 84.3173 1243.7 83.912C1243.7 83.5813 1243.6 83.3093 1243.4 83.096C1243.19 82.8827 1242.94 82.7173 1242.63 82.6C1242.33 82.472 1241.91 82.3333 1241.38 82.184C1240.65 81.9707 1240.06 81.7627 1239.6 81.56C1239.16 81.3467 1238.77 81.032 1238.44 80.616C1238.12 80.1893 1237.96 79.624 1237.96 78.92C1237.96 78.2587 1238.12 77.6827 1238.45 77.192C1238.78 76.7013 1239.25 76.328 1239.84 76.072C1240.44 75.8053 1241.12 75.672 1241.89 75.672C1243.04 75.672 1243.98 75.9547 1244.69 76.52C1245.42 77.0747 1245.82 77.8533 1245.89 78.856H1243.43C1243.41 78.472 1243.24 78.1573 1242.93 77.912C1242.63 77.656 1242.23 77.528 1241.73 77.528C1241.29 77.528 1240.94 77.64 1240.68 77.864C1240.42 78.088 1240.29 78.4133 1240.29 78.84C1240.29 79.1387 1240.39 79.3893 1240.58 79.592C1240.78 79.784 1241.03 79.944 1241.32 80.072C1241.61 80.1893 1242.03 80.328 1242.56 80.488C1243.29 80.7013 1243.88 80.9147 1244.34 81.128C1244.8 81.3413 1245.19 81.6613 1245.52 82.088C1245.85 82.5147 1246.02 83.0747 1246.02 83.768C1246.02 84.3653 1245.87 84.92 1245.56 85.432C1245.25 85.944 1244.79 86.3547 1244.2 86.664C1243.6 86.9627 1242.89 87.112 1242.07 87.112Z" fill="white"/>
<path d="M1299.56 81.4C1299.56 80.3013 1299.81 79.32 1300.3 78.456C1300.8 77.5813 1301.47 76.904 1302.33 76.424C1303.19 75.9333 1304.16 75.688 1305.22 75.688C1306.47 75.688 1307.57 76.008 1308.5 76.648C1309.44 77.288 1310.1 78.1733 1310.47 79.304H1307.9C1307.64 78.7707 1307.28 78.3707 1306.81 78.104C1306.35 77.8373 1305.82 77.704 1305.21 77.704C1304.56 77.704 1303.98 77.8587 1303.46 78.168C1302.96 78.4667 1302.57 78.8933 1302.28 79.448C1302 80.0027 1301.86 80.6533 1301.86 81.4C1301.86 82.136 1302 82.7867 1302.28 83.352C1302.57 83.9067 1302.96 84.3387 1303.46 84.648C1303.98 84.9467 1304.56 85.096 1305.21 85.096C1305.82 85.096 1306.35 84.9627 1306.81 84.696C1307.28 84.4187 1307.64 84.0133 1307.9 83.48H1310.47C1310.1 84.6213 1309.44 85.512 1308.5 86.152C1307.58 86.7813 1306.48 87.096 1305.22 87.096C1304.16 87.096 1303.19 86.856 1302.33 86.376C1301.47 85.8853 1300.8 85.208 1300.3 84.344C1299.81 83.48 1299.56 82.4987 1299.56 81.4ZM1319.01 87.112C1317.96 87.112 1317 86.8667 1316.13 86.376C1315.25 85.8853 1314.56 85.208 1314.05 84.344C1313.54 83.4693 1313.28 82.4827 1313.28 81.384C1313.28 80.296 1313.54 79.32 1314.05 78.456C1314.56 77.5813 1315.25 76.8987 1316.13 76.408C1317 75.9173 1317.96 75.672 1319.01 75.672C1320.07 75.672 1321.03 75.9173 1321.89 76.408C1322.76 76.8987 1323.45 77.5813 1323.95 78.456C1324.47 79.32 1324.72 80.296 1324.72 81.384C1324.72 82.4827 1324.47 83.4693 1323.95 84.344C1323.45 85.208 1322.76 85.8853 1321.89 86.376C1321.01 86.8667 1320.05 87.112 1319.01 87.112ZM1319.01 85.112C1319.68 85.112 1320.27 84.9627 1320.79 84.664C1321.3 84.3547 1321.7 83.9173 1321.99 83.352C1322.27 82.7867 1322.42 82.1307 1322.42 81.384C1322.42 80.6373 1322.27 79.9867 1321.99 79.432C1321.7 78.8667 1321.3 78.4347 1320.79 78.136C1320.27 77.8373 1319.68 77.688 1319.01 77.688C1318.34 77.688 1317.74 77.8373 1317.22 78.136C1316.71 78.4347 1316.31 78.8667 1316.02 79.432C1315.73 79.9867 1315.59 80.6373 1315.59 81.384C1315.59 82.1307 1315.73 82.7867 1316.02 83.352C1316.31 83.9173 1316.71 84.3547 1317.22 84.664C1317.74 84.9627 1318.34 85.112 1319.01 85.112ZM1337.38 87H1335.14L1330.07 79.336V87H1327.83V75.816H1330.07L1335.14 83.496V75.816H1337.38V87ZM1348.63 75.832V77.64H1345.66V87H1343.42V77.64H1340.44V75.832H1348.63ZM1358.56 84.872H1354.11L1353.37 87H1351.02L1355.04 75.816H1357.64L1361.66 87H1359.29L1358.56 84.872ZM1357.95 83.08L1356.33 78.408L1354.72 83.08H1357.95ZM1364.06 81.4C1364.06 80.3013 1364.3 79.32 1364.79 78.456C1365.29 77.5813 1365.97 76.904 1366.82 76.424C1367.69 75.9333 1368.65 75.688 1369.72 75.688C1370.97 75.688 1372.06 76.008 1373 76.648C1373.94 77.288 1374.6 78.1733 1374.97 79.304H1372.39C1372.14 78.7707 1371.77 78.3707 1371.3 78.104C1370.85 77.8373 1370.31 77.704 1369.7 77.704C1369.05 77.704 1368.47 77.8587 1367.96 78.168C1367.46 78.4667 1367.06 78.8933 1366.78 79.448C1366.5 80.0027 1366.36 80.6533 1366.36 81.4C1366.36 82.136 1366.5 82.7867 1366.78 83.352C1367.06 83.9067 1367.46 84.3387 1367.96 84.648C1368.47 84.9467 1369.05 85.096 1369.7 85.096C1370.31 85.096 1370.85 84.9627 1371.3 84.696C1371.77 84.4187 1372.14 84.0133 1372.39 83.48H1374.97C1374.6 84.6213 1373.94 85.512 1373 86.152C1372.07 86.7813 1370.98 87.096 1369.72 87.096C1368.65 87.096 1367.69 86.856 1366.82 86.376C1365.97 85.8853 1365.29 85.208 1364.79 84.344C1364.3 83.48 1364.06 82.4987 1364.06 81.4ZM1385.92 75.832V77.64H1382.95V87H1380.71V77.64H1377.73V75.832H1385.92ZM1394.18 87.112C1393.14 87.112 1392.18 86.8667 1391.3 86.376C1390.43 85.8853 1389.73 85.208 1389.22 84.344C1388.71 83.4693 1388.45 82.4827 1388.45 81.384C1388.45 80.296 1388.71 79.32 1389.22 78.456C1389.73 77.5813 1390.43 76.8987 1391.3 76.408C1392.18 75.9173 1393.14 75.672 1394.18 75.672C1395.24 75.672 1396.2 75.9173 1397.06 76.408C1397.94 76.8987 1398.62 77.5813 1399.12 78.456C1399.64 79.32 1399.89 80.296 1399.89 81.384C1399.89 82.4827 1399.64 83.4693 1399.12 84.344C1398.62 85.208 1397.94 85.8853 1397.06 86.376C1396.19 86.8667 1395.23 87.112 1394.18 87.112ZM1394.18 85.112C1394.85 85.112 1395.44 84.9627 1395.96 84.664C1396.47 84.3547 1396.87 83.9173 1397.16 83.352C1397.44 82.7867 1397.59 82.1307 1397.59 81.384C1397.59 80.6373 1397.44 79.9867 1397.16 79.432C1396.87 78.8667 1396.47 78.4347 1395.96 78.136C1395.44 77.8373 1394.85 77.688 1394.18 77.688C1393.51 77.688 1392.91 77.8373 1392.39 78.136C1391.88 78.4347 1391.48 78.8667 1391.19 79.432C1390.9 79.9867 1390.76 80.6373 1390.76 81.384C1390.76 82.1307 1390.9 82.7867 1391.19 83.352C1391.48 83.9173 1391.88 84.3547 1392.39 84.664C1392.91 84.9627 1393.51 85.112 1394.18 85.112Z" fill="white"/>
<path d="M537.344 439.224H541.024V441H535.104V429.832H537.344V439.224ZM552.256 432.136V441H550V439.88C549.712 440.264 549.333 440.568 548.864 440.792C548.405 441.005 547.904 441.112 547.36 441.112C546.666 441.112 546.053 440.968 545.52 440.68C544.986 440.381 544.565 439.949 544.256 439.384C543.957 438.808 543.808 438.125 543.808 437.336V432.136H546.048V437.016C546.048 437.72 546.224 438.264 546.576 438.648C546.928 439.021 547.408 439.208 548.016 439.208C548.634 439.208 549.12 439.021 549.472 438.648C549.824 438.264 550 437.72 550 437.016V432.136H552.256ZM555.33 436.568C555.33 435.651 555.517 434.851 555.89 434.168C556.263 433.475 556.781 432.941 557.442 432.568C558.103 432.184 558.861 431.992 559.714 431.992C560.813 431.992 561.719 432.269 562.434 432.824C563.159 433.368 563.645 434.136 563.89 435.128H561.474C561.346 434.744 561.127 434.445 560.818 434.232C560.519 434.008 560.146 433.896 559.698 433.896C559.058 433.896 558.551 434.131 558.178 434.6C557.805 435.059 557.618 435.715 557.618 436.568C557.618 437.411 557.805 438.067 558.178 438.536C558.551 438.995 559.058 439.224 559.698 439.224C560.605 439.224 561.197 438.819 561.474 438.008H563.89C563.645 438.968 563.159 439.731 562.434 440.296C561.709 440.861 560.802 441.144 559.714 441.144C558.861 441.144 558.103 440.957 557.442 440.584C556.781 440.2 556.263 439.667 555.89 438.984C555.517 438.291 555.33 437.485 555.33 436.568ZM566.395 436.536C566.395 435.64 566.571 434.845 566.923 434.152C567.286 433.459 567.771 432.925 568.379 432.552C568.998 432.179 569.686 431.992 570.443 431.992C571.104 431.992 571.68 432.125 572.171 432.392C572.672 432.659 573.072 432.995 573.371 433.4V432.136H575.627V441H573.371V439.704C573.083 440.12 572.683 440.467 572.171 440.744C571.67 441.011 571.088 441.144 570.427 441.144C569.68 441.144 568.998 440.952 568.379 440.568C567.771 440.184 567.286 439.645 566.923 438.952C566.571 438.248 566.395 437.443 566.395 436.536ZM573.371 436.568C573.371 436.024 573.264 435.56 573.051 435.176C572.838 434.781 572.55 434.483 572.187 434.28C571.824 434.067 571.435 433.96 571.019 433.96C570.603 433.96 570.219 434.061 569.867 434.264C569.515 434.467 569.227 434.765 569.003 435.16C568.79 435.544 568.683 436.003 568.683 436.536C568.683 437.069 568.79 437.539 569.003 437.944C569.227 438.339 569.515 438.643 569.867 438.856C570.23 439.069 570.614 439.176 571.019 439.176C571.435 439.176 571.824 439.075 572.187 438.872C572.55 438.659 572.838 438.36 573.051 437.976C573.264 437.581 573.371 437.112 573.371 436.568ZM582.647 441.144C581.921 441.144 581.271 441.016 580.695 440.76C580.119 440.493 579.66 440.136 579.319 439.688C578.988 439.24 578.807 438.744 578.775 438.2H581.031C581.073 438.541 581.239 438.824 581.527 439.048C581.825 439.272 582.193 439.384 582.631 439.384C583.057 439.384 583.388 439.299 583.623 439.128C583.868 438.957 583.991 438.739 583.991 438.472C583.991 438.184 583.841 437.971 583.543 437.832C583.255 437.683 582.791 437.523 582.151 437.352C581.489 437.192 580.945 437.027 580.519 436.856C580.103 436.685 579.74 436.424 579.431 436.072C579.132 435.72 578.983 435.245 578.983 434.648C578.983 434.157 579.121 433.709 579.399 433.304C579.687 432.899 580.092 432.579 580.615 432.344C581.148 432.109 581.772 431.992 582.487 431.992C583.543 431.992 584.385 432.259 585.015 432.792C585.644 433.315 585.991 434.024 586.055 434.92H583.911C583.879 434.568 583.729 434.291 583.463 434.088C583.207 433.875 582.86 433.768 582.423 433.768C582.017 433.768 581.703 433.843 581.479 433.992C581.265 434.141 581.159 434.349 581.159 434.616C581.159 434.915 581.308 435.144 581.607 435.304C581.905 435.453 582.369 435.608 582.999 435.768C583.639 435.928 584.167 436.093 584.583 436.264C584.999 436.435 585.356 436.701 585.655 437.064C585.964 437.416 586.124 437.885 586.135 438.472C586.135 438.984 585.991 439.443 585.703 439.848C585.425 440.253 585.02 440.573 584.487 440.808C583.964 441.032 583.351 441.144 582.647 441.144ZM598.57 429.832C599.743 429.832 600.773 430.061 601.658 430.52C602.554 430.979 603.242 431.635 603.722 432.488C604.213 433.331 604.458 434.312 604.458 435.432C604.458 436.552 604.213 437.533 603.722 438.376C603.242 439.208 602.554 439.853 601.658 440.312C600.773 440.771 599.743 441 598.57 441H594.666V429.832H598.57ZM598.49 439.096C599.663 439.096 600.57 438.776 601.21 438.136C601.85 437.496 602.17 436.595 602.17 435.432C602.17 434.269 601.85 433.363 601.21 432.712C600.57 432.051 599.663 431.72 598.49 431.72H596.906V439.096H598.49ZM615.815 436.376C615.815 436.696 615.793 436.984 615.751 437.24H609.271C609.324 437.88 609.548 438.381 609.943 438.744C610.337 439.107 610.823 439.288 611.399 439.288C612.231 439.288 612.823 438.931 613.175 438.216H615.591C615.335 439.069 614.844 439.773 614.119 440.328C613.393 440.872 612.503 441.144 611.447 441.144C610.593 441.144 609.825 440.957 609.143 440.584C608.471 440.2 607.943 439.661 607.559 438.968C607.185 438.275 606.999 437.475 606.999 436.568C606.999 435.651 607.185 434.845 607.559 434.152C607.932 433.459 608.455 432.925 609.127 432.552C609.799 432.179 610.572 431.992 611.447 431.992C612.289 431.992 613.041 432.173 613.703 432.536C614.375 432.899 614.892 433.416 615.255 434.088C615.628 434.749 615.815 435.512 615.815 436.376ZM613.495 435.736C613.484 435.16 613.276 434.701 612.871 434.36C612.465 434.008 611.969 433.832 611.383 433.832C610.828 433.832 610.359 434.003 609.975 434.344C609.601 434.675 609.372 435.139 609.287 435.736H613.495ZM631.038 429.832V431.64H626.382V434.504H629.95V436.28H626.382V441H624.142V429.832H631.038ZM635.203 431.08C634.808 431.08 634.477 430.957 634.211 430.712C633.955 430.456 633.827 430.141 633.827 429.768C633.827 429.395 633.955 429.085 634.211 428.84C634.477 428.584 634.808 428.456 635.203 428.456C635.597 428.456 635.923 428.584 636.179 428.84C636.445 429.085 636.579 429.395 636.579 429.768C636.579 430.141 636.445 430.456 636.179 430.712C635.923 430.957 635.597 431.08 635.203 431.08ZM636.307 432.136V441H634.067V432.136H636.307ZM644.872 432.008C645.928 432.008 646.781 432.344 647.432 433.016C648.082 433.677 648.408 434.605 648.408 435.8V441H646.168V436.104C646.168 435.4 645.992 434.861 645.64 434.488C645.288 434.104 644.808 433.912 644.2 433.912C643.581 433.912 643.09 434.104 642.728 434.488C642.376 434.861 642.2 435.4 642.2 436.104V441H639.96V432.136H642.2V433.24C642.498 432.856 642.877 432.557 643.336 432.344C643.805 432.12 644.317 432.008 644.872 432.008ZM655.914 441.144C655.06 441.144 654.292 440.957 653.61 440.584C652.927 440.2 652.388 439.661 651.994 438.968C651.61 438.275 651.418 437.475 651.418 436.568C651.418 435.661 651.615 434.861 652.01 434.168C652.415 433.475 652.964 432.941 653.658 432.568C654.351 432.184 655.124 431.992 655.978 431.992C656.831 431.992 657.604 432.184 658.298 432.568C658.991 432.941 659.535 433.475 659.93 434.168C660.335 434.861 660.538 435.661 660.538 436.568C660.538 437.475 660.33 438.275 659.914 438.968C659.508 439.661 658.954 440.2 658.25 440.584C657.556 440.957 656.778 441.144 655.914 441.144ZM655.914 439.192C656.319 439.192 656.698 439.096 657.05 438.904C657.412 438.701 657.7 438.403 657.914 438.008C658.127 437.613 658.234 437.133 658.234 436.568C658.234 435.725 658.01 435.08 657.562 434.632C657.124 434.173 656.586 433.944 655.946 433.944C655.306 433.944 654.767 434.173 654.33 434.632C653.903 435.08 653.69 435.725 653.69 436.568C653.69 437.411 653.898 438.061 654.314 438.52C654.74 438.968 655.274 439.192 655.914 439.192ZM666.069 438.648L664.197 443.144H662.757L663.797 438.648H666.069ZM682.52 433.288C682.52 433.885 682.376 434.445 682.088 434.968C681.811 435.491 681.368 435.912 680.76 436.232C680.163 436.552 679.405 436.712 678.488 436.712H676.616V441H674.376V429.832H678.488C679.352 429.832 680.088 429.981 680.696 430.28C681.304 430.579 681.757 430.989 682.056 431.512C682.365 432.035 682.52 432.627 682.52 433.288ZM678.392 434.904C679.011 434.904 679.469 434.765 679.768 434.488C680.067 434.2 680.216 433.8 680.216 433.288C680.216 432.2 679.608 431.656 678.392 431.656H676.616V434.904H678.392ZM686.686 431.08C686.292 431.08 685.961 430.957 685.694 430.712C685.438 430.456 685.31 430.141 685.31 429.768C685.31 429.395 685.438 429.085 685.694 428.84C685.961 428.584 686.292 428.456 686.686 428.456C687.081 428.456 687.406 428.584 687.662 428.84C687.929 429.085 688.062 429.395 688.062 429.768C688.062 430.141 687.929 430.456 687.662 430.712C687.406 430.957 687.081 431.08 686.686 431.08ZM687.79 432.136V441H685.55V432.136H687.79ZM693.683 429.16V441H691.443V429.16H693.683ZM696.76 436.536C696.76 435.64 696.936 434.845 697.288 434.152C697.651 433.459 698.136 432.925 698.744 432.552C699.363 432.179 700.051 431.992 700.808 431.992C701.47 431.992 702.046 432.125 702.536 432.392C703.038 432.659 703.438 432.995 703.736 433.4V432.136H705.992V441H703.736V439.704C703.448 440.12 703.048 440.467 702.536 440.744C702.035 441.011 701.454 441.144 700.792 441.144C700.046 441.144 699.363 440.952 698.744 440.568C698.136 440.184 697.651 439.645 697.288 438.952C696.936 438.248 696.76 437.443 696.76 436.536ZM703.736 436.568C703.736 436.024 703.63 435.56 703.416 435.176C703.203 434.781 702.915 434.483 702.552 434.28C702.19 434.067 701.8 433.96 701.384 433.96C700.968 433.96 700.584 434.061 700.232 434.264C699.88 434.467 699.592 434.765 699.368 435.16C699.155 435.544 699.048 436.003 699.048 436.536C699.048 437.069 699.155 437.539 699.368 437.944C699.592 438.339 699.88 438.643 700.232 438.856C700.595 439.069 700.979 439.176 701.384 439.176C701.8 439.176 702.19 439.075 702.552 438.872C702.915 438.659 703.203 438.36 703.416 437.976C703.63 437.581 703.736 437.112 703.736 436.568ZM711.86 433.512C712.148 433.043 712.522 432.675 712.98 432.408C713.45 432.141 713.983 432.008 714.58 432.008V434.36H713.988C713.284 434.36 712.751 434.525 712.388 434.856C712.036 435.187 711.86 435.763 711.86 436.584V441H709.62V432.136H711.86V433.512ZM726.638 441.112C725.859 441.112 725.155 440.979 724.526 440.712C723.907 440.445 723.416 440.061 723.054 439.56C722.691 439.059 722.504 438.467 722.494 437.784H724.894C724.926 438.243 725.086 438.605 725.374 438.872C725.672 439.139 726.078 439.272 726.59 439.272C727.112 439.272 727.523 439.149 727.822 438.904C728.12 438.648 728.27 438.317 728.27 437.912C728.27 437.581 728.168 437.309 727.966 437.096C727.763 436.883 727.507 436.717 727.198 436.6C726.899 436.472 726.483 436.333 725.95 436.184C725.224 435.971 724.632 435.763 724.174 435.56C723.726 435.347 723.336 435.032 723.006 434.616C722.686 434.189 722.526 433.624 722.526 432.92C722.526 432.259 722.691 431.683 723.022 431.192C723.352 430.701 723.816 430.328 724.414 430.072C725.011 429.805 725.694 429.672 726.462 429.672C727.614 429.672 728.547 429.955 729.262 430.52C729.987 431.075 730.387 431.853 730.462 432.856H727.998C727.976 432.472 727.811 432.157 727.502 431.912C727.203 431.656 726.803 431.528 726.302 431.528C725.864 431.528 725.512 431.64 725.246 431.864C724.99 432.088 724.862 432.413 724.862 432.84C724.862 433.139 724.958 433.389 725.15 433.592C725.352 433.784 725.598 433.944 725.886 434.072C726.184 434.189 726.6 434.328 727.134 434.488C727.859 434.701 728.451 434.915 728.91 435.128C729.368 435.341 729.763 435.661 730.094 436.088C730.424 436.515 730.59 437.075 730.59 437.768C730.59 438.365 730.435 438.92 730.126 439.432C729.816 439.944 729.363 440.355 728.766 440.664C728.168 440.963 727.459 441.112 726.638 441.112ZM737.908 441.144C737.054 441.144 736.286 440.957 735.604 440.584C734.921 440.2 734.382 439.661 733.988 438.968C733.604 438.275 733.412 437.475 733.412 436.568C733.412 435.661 733.609 434.861 734.004 434.168C734.409 433.475 734.958 432.941 735.652 432.568C736.345 432.184 737.118 431.992 737.972 431.992C738.825 431.992 739.598 432.184 740.292 432.568C740.985 432.941 741.529 433.475 741.924 434.168C742.329 434.861 742.532 435.661 742.532 436.568C742.532 437.475 742.324 438.275 741.908 438.968C741.502 439.661 740.948 440.2 740.244 440.584C739.55 440.957 738.772 441.144 737.908 441.144ZM737.908 439.192C738.313 439.192 738.692 439.096 739.044 438.904C739.406 438.701 739.694 438.403 739.908 438.008C740.121 437.613 740.228 437.133 740.228 436.568C740.228 435.725 740.004 435.08 739.556 434.632C739.118 434.173 738.58 433.944 737.94 433.944C737.3 433.944 736.761 434.173 736.324 434.632C735.897 435.08 735.684 435.725 735.684 436.568C735.684 437.411 735.892 438.061 736.308 438.52C736.734 438.968 737.268 439.192 737.908 439.192ZM747.855 429.16V441H745.615V429.16H747.855ZM750.932 436.536C750.932 435.64 751.108 434.845 751.46 434.152C751.822 433.459 752.308 432.925 752.916 432.552C753.534 432.179 754.222 431.992 754.98 431.992C755.641 431.992 756.217 432.125 756.708 432.392C757.209 432.659 757.609 432.995 757.908 433.4V432.136H760.164V441H757.908V439.704C757.62 440.12 757.22 440.467 756.708 440.744C756.206 441.011 755.625 441.144 754.964 441.144C754.217 441.144 753.534 440.952 752.916 440.568C752.308 440.184 751.822 439.645 751.46 438.952C751.108 438.248 750.932 437.443 750.932 436.536ZM757.908 436.568C757.908 436.024 757.801 435.56 757.588 435.176C757.374 434.781 757.086 434.483 756.724 434.28C756.361 434.067 755.972 433.96 755.556 433.96C755.14 433.96 754.756 434.061 754.404 434.264C754.052 434.467 753.764 434.765 753.54 435.16C753.326 435.544 753.22 436.003 753.22 436.536C753.22 437.069 753.326 437.539 753.54 437.944C753.764 438.339 754.052 438.643 754.404 438.856C754.766 439.069 755.15 439.176 755.556 439.176C755.972 439.176 756.361 439.075 756.724 438.872C757.086 438.659 757.374 438.36 757.588 437.976C757.801 437.581 757.908 437.112 757.908 436.568ZM766.032 433.512C766.32 433.043 766.693 432.675 767.152 432.408C767.621 432.141 768.154 432.008 768.752 432.008V434.36H768.16C767.456 434.36 766.922 434.525 766.56 434.856C766.208 435.187 766.032 435.763 766.032 436.584V441H763.792V432.136H766.032V433.512ZM772.836 431.08C772.442 431.08 772.111 430.957 771.844 430.712C771.588 430.456 771.46 430.141 771.46 429.768C771.46 429.395 771.588 429.085 771.844 428.84C772.111 428.584 772.442 428.456 772.836 428.456C773.231 428.456 773.556 428.584 773.812 428.84C774.079 429.085 774.212 429.395 774.212 429.768C774.212 430.141 774.079 430.456 773.812 430.712C773.556 430.957 773.231 431.08 772.836 431.08ZM773.94 432.136V441H771.7V432.136H773.94ZM789.182 435.272C789.811 435.389 790.329 435.704 790.734 436.216C791.139 436.728 791.342 437.315 791.342 437.976C791.342 438.573 791.193 439.101 790.894 439.56C790.606 440.008 790.185 440.36 789.63 440.616C789.075 440.872 788.419 441 787.662 441H782.846V429.832H787.454C788.211 429.832 788.862 429.955 789.406 430.2C789.961 430.445 790.377 430.787 790.654 431.224C790.942 431.661 791.086 432.157 791.086 432.712C791.086 433.363 790.91 433.907 790.558 434.344C790.217 434.781 789.758 435.091 789.182 435.272ZM785.086 434.44H787.134C787.667 434.44 788.078 434.323 788.366 434.088C788.654 433.843 788.798 433.496 788.798 433.048C788.798 432.6 788.654 432.253 788.366 432.008C788.078 431.763 787.667 431.64 787.134 431.64H785.086V434.44ZM787.342 439.176C787.886 439.176 788.307 439.048 788.606 438.792C788.915 438.536 789.07 438.173 789.07 437.704C789.07 437.224 788.91 436.851 788.59 436.584C788.27 436.307 787.838 436.168 787.294 436.168H785.086V439.176H787.342ZM793.991 436.536C793.991 435.64 794.167 434.845 794.519 434.152C794.882 433.459 795.367 432.925 795.975 432.552C796.594 432.179 797.282 431.992 798.039 431.992C798.7 431.992 799.276 432.125 799.767 432.392C800.268 432.659 800.668 432.995 800.967 433.4V432.136H803.223V441H800.967V439.704C800.679 440.12 800.279 440.467 799.767 440.744C799.266 441.011 798.684 441.144 798.023 441.144C797.276 441.144 796.594 440.952 795.975 440.568C795.367 440.184 794.882 439.645 794.519 438.952C794.167 438.248 793.991 437.443 793.991 436.536ZM800.967 436.568C800.967 436.024 800.86 435.56 800.647 435.176C800.434 434.781 800.146 434.483 799.783 434.28C799.42 434.067 799.031 433.96 798.615 433.96C798.199 433.96 797.815 434.061 797.463 434.264C797.111 434.467 796.823 434.765 796.599 435.16C796.386 435.544 796.279 436.003 796.279 436.536C796.279 437.069 796.386 437.539 796.599 437.944C796.823 438.339 797.111 438.643 797.463 438.856C797.826 439.069 798.21 439.176 798.615 439.176C799.031 439.176 799.42 439.075 799.783 438.872C800.146 438.659 800.434 438.36 800.647 437.976C800.86 437.581 800.967 437.112 800.967 436.568ZM809.091 433.512C809.379 433.043 809.752 432.675 810.211 432.408C810.68 432.141 811.214 432.008 811.811 432.008V434.36H811.219C810.515 434.36 809.982 434.525 809.619 434.856C809.267 435.187 809.091 435.763 809.091 436.584V441H806.851V432.136H809.091V433.512ZM817 433.512C817.288 433.043 817.661 432.675 818.12 432.408C818.589 432.141 819.122 432.008 819.72 432.008V434.36H819.128C818.424 434.36 817.89 434.525 817.528 434.856C817.176 435.187 817 435.763 817 436.584V441H814.76V432.136H817V433.512ZM823.804 431.08C823.41 431.08 823.079 430.957 822.812 430.712C822.556 430.456 822.428 430.141 822.428 429.768C822.428 429.395 822.556 429.085 822.812 428.84C823.079 428.584 823.41 428.456 823.804 428.456C824.199 428.456 824.524 428.584 824.78 428.84C825.047 429.085 825.18 429.395 825.18 429.768C825.18 430.141 825.047 430.456 824.78 430.712C824.524 430.957 824.199 431.08 823.804 431.08ZM824.908 432.136V441H822.668V432.136H824.908ZM832.497 441.144C831.644 441.144 830.876 440.957 830.193 440.584C829.511 440.2 828.972 439.661 828.577 438.968C828.193 438.275 828.001 437.475 828.001 436.568C828.001 435.661 828.199 434.861 828.593 434.168C828.999 433.475 829.548 432.941 830.241 432.568C830.935 432.184 831.708 431.992 832.561 431.992C833.415 431.992 834.188 432.184 834.881 432.568C835.575 432.941 836.119 433.475 836.513 434.168C836.919 434.861 837.121 435.661 837.121 436.568C837.121 437.475 836.913 438.275 836.497 438.968C836.092 439.661 835.537 440.2 834.833 440.584C834.14 440.957 833.361 441.144 832.497 441.144ZM832.497 439.192C832.903 439.192 833.281 439.096 833.633 438.904C833.996 438.701 834.284 438.403 834.497 438.008C834.711 437.613 834.817 437.133 834.817 436.568C834.817 435.725 834.593 435.08 834.145 434.632C833.708 434.173 833.169 433.944 832.529 433.944C831.889 433.944 831.351 434.173 830.913 434.632C830.487 435.08 830.273 435.725 830.273 436.568C830.273 437.411 830.481 438.061 830.897 438.52C831.324 438.968 831.857 439.192 832.497 439.192ZM843.597 441.144C842.871 441.144 842.221 441.016 841.645 440.76C841.069 440.493 840.61 440.136 840.269 439.688C839.938 439.24 839.757 438.744 839.725 438.2H841.981C842.023 438.541 842.189 438.824 842.477 439.048C842.775 439.272 843.143 439.384 843.581 439.384C844.007 439.384 844.338 439.299 844.573 439.128C844.818 438.957 844.941 438.739 844.941 438.472C844.941 438.184 844.791 437.971 844.493 437.832C844.205 437.683 843.741 437.523 843.101 437.352C842.439 437.192 841.895 437.027 841.469 436.856C841.053 436.685 840.69 436.424 840.381 436.072C840.082 435.72 839.933 435.245 839.933 434.648C839.933 434.157 840.071 433.709 840.349 433.304C840.637 432.899 841.042 432.579 841.565 432.344C842.098 432.109 842.722 431.992 843.437 431.992C844.493 431.992 845.335 432.259 845.965 432.792C846.594 433.315 846.941 434.024 847.005 434.92H844.861C844.829 434.568 844.679 434.291 844.413 434.088C844.157 433.875 843.81 433.768 843.373 433.768C842.967 433.768 842.653 433.843 842.429 433.992C842.215 434.141 842.109 434.349 842.109 434.616C842.109 434.915 842.258 435.144 842.557 435.304C842.855 435.453 843.319 435.608 843.949 435.768C844.589 435.928 845.117 436.093 845.533 436.264C845.949 436.435 846.306 436.701 846.605 437.064C846.914 437.416 847.074 437.885 847.085 438.472C847.085 438.984 846.941 439.443 846.653 439.848C846.375 440.253 845.97 440.573 845.437 440.808C844.914 441.032 844.301 441.144 843.597 441.144ZM862.432 434.344V436.232H855.648V434.344H862.432ZM872.085 438.472C873.109 437.619 873.925 436.909 874.533 436.344C875.141 435.768 875.647 435.171 876.053 434.552C876.458 433.933 876.661 433.325 876.661 432.728C876.661 432.184 876.533 431.757 876.277 431.448C876.021 431.139 875.626 430.984 875.093 430.984C874.559 430.984 874.149 431.165 873.861 431.528C873.573 431.88 873.423 432.365 873.413 432.984H871.237C871.279 431.704 871.658 430.733 872.373 430.072C873.098 429.411 874.015 429.08 875.125 429.08C876.341 429.08 877.274 429.405 877.925 430.056C878.575 430.696 878.901 431.544 878.901 432.6C878.901 433.432 878.677 434.227 878.229 434.984C877.781 435.741 877.269 436.403 876.693 436.968C876.117 437.523 875.365 438.195 874.437 438.984H879.157V440.84H871.253V439.176L872.085 438.472ZM888.056 432.248C887.949 431.8 887.763 431.464 887.496 431.24C887.24 431.016 886.867 430.904 886.376 430.904C885.64 430.904 885.096 431.203 884.744 431.8C884.403 432.387 884.227 433.347 884.216 434.68C884.472 434.253 884.845 433.923 885.336 433.688C885.827 433.443 886.36 433.32 886.936 433.32C887.629 433.32 888.243 433.469 888.776 433.768C889.309 434.067 889.725 434.504 890.024 435.08C890.323 435.645 890.472 436.328 890.472 437.128C890.472 437.885 890.317 438.563 890.008 439.16C889.709 439.747 889.267 440.205 888.68 440.536C888.093 440.867 887.395 441.032 886.584 441.032C885.475 441.032 884.6 440.787 883.96 440.296C883.331 439.805 882.888 439.123 882.632 438.248C882.387 437.363 882.264 436.275 882.264 434.984C882.264 433.032 882.6 431.56 883.272 430.568C883.944 429.565 885.005 429.064 886.456 429.064C887.576 429.064 888.445 429.368 889.064 429.976C889.683 430.584 890.04 431.341 890.136 432.248H888.056ZM886.424 435.16C885.859 435.16 885.384 435.325 885 435.656C884.616 435.987 884.424 436.467 884.424 437.096C884.424 437.725 884.6 438.221 884.952 438.584C885.315 438.947 885.821 439.128 886.472 439.128C887.048 439.128 887.501 438.952 887.832 438.6C888.173 438.248 888.344 437.773 888.344 437.176C888.344 436.557 888.179 436.067 887.848 435.704C887.528 435.341 887.053 435.16 886.424 435.16ZM898.615 436.536C898.615 435.64 898.791 434.845 899.143 434.152C899.506 433.459 899.996 432.925 900.615 432.552C901.234 432.179 901.922 431.992 902.679 431.992C903.255 431.992 903.804 432.12 904.327 432.376C904.85 432.621 905.266 432.952 905.575 433.368V429.16H907.847V441H905.575V439.688C905.298 440.125 904.908 440.477 904.407 440.744C903.906 441.011 903.324 441.144 902.663 441.144C901.916 441.144 901.234 440.952 900.615 440.568C899.996 440.184 899.506 439.645 899.143 438.952C898.791 438.248 898.615 437.443 898.615 436.536ZM905.591 436.568C905.591 436.024 905.484 435.56 905.271 435.176C905.058 434.781 904.77 434.483 904.407 434.28C904.044 434.067 903.655 433.96 903.239 433.96C902.823 433.96 902.439 434.061 902.087 434.264C901.735 434.467 901.447 434.765 901.223 435.16C901.01 435.544 900.903 436.003 900.903 436.536C900.903 437.069 901.01 437.539 901.223 437.944C901.447 438.339 901.735 438.643 902.087 438.856C902.45 439.069 902.834 439.176 903.239 439.176C903.655 439.176 904.044 439.075 904.407 438.872C904.77 438.659 905.058 438.36 905.271 437.976C905.484 437.581 905.591 437.112 905.591 436.568ZM919.715 436.376C919.715 436.696 919.693 436.984 919.651 437.24H913.171C913.224 437.88 913.448 438.381 913.843 438.744C914.237 439.107 914.723 439.288 915.299 439.288C916.131 439.288 916.723 438.931 917.075 438.216H919.491C919.235 439.069 918.744 439.773 918.019 440.328C917.293 440.872 916.403 441.144 915.347 441.144C914.493 441.144 913.725 440.957 913.043 440.584C912.371 440.2 911.843 439.661 911.459 438.968C911.085 438.275 910.899 437.475 910.899 436.568C910.899 435.651 911.085 434.845 911.459 434.152C911.832 433.459 912.355 432.925 913.027 432.552C913.699 432.179 914.472 431.992 915.347 431.992C916.189 431.992 916.941 432.173 917.603 432.536C918.275 432.899 918.792 433.416 919.155 434.088C919.528 434.749 919.715 435.512 919.715 436.376ZM917.395 435.736C917.384 435.16 917.176 434.701 916.771 434.36C916.365 434.008 915.869 433.832 915.283 433.832C914.728 433.832 914.259 434.003 913.875 434.344C913.501 434.675 913.272 435.139 913.187 435.736H917.395ZM927.466 436.536C927.466 435.64 927.642 434.845 927.994 434.152C928.357 433.459 928.842 432.925 929.45 432.552C930.069 432.179 930.757 431.992 931.514 431.992C932.175 431.992 932.751 432.125 933.242 432.392C933.743 432.659 934.143 432.995 934.442 433.4V432.136H936.698V441H934.442V439.704C934.154 440.12 933.754 440.467 933.242 440.744C932.741 441.011 932.159 441.144 931.498 441.144C930.751 441.144 930.069 440.952 929.45 440.568C928.842 440.184 928.357 439.645 927.994 438.952C927.642 438.248 927.466 437.443 927.466 436.536ZM934.442 436.568C934.442 436.024 934.335 435.56 934.122 435.176C933.909 434.781 933.621 434.483 933.258 434.28C932.895 434.067 932.506 433.96 932.09 433.96C931.674 433.96 931.29 434.061 930.938 434.264C930.586 434.467 930.298 434.765 930.074 435.16C929.861 435.544 929.754 436.003 929.754 436.536C929.754 437.069 929.861 437.539 930.074 437.944C930.298 438.339 930.586 438.643 930.938 438.856C931.301 439.069 931.685 439.176 932.09 439.176C932.506 439.176 932.895 439.075 933.258 438.872C933.621 438.659 933.909 438.36 934.122 437.976C934.335 437.581 934.442 437.112 934.442 436.568ZM942.566 433.432C942.854 433.005 943.249 432.659 943.75 432.392C944.262 432.125 944.843 431.992 945.494 431.992C946.251 431.992 946.934 432.179 947.542 432.552C948.161 432.925 948.646 433.459 948.998 434.152C949.361 434.835 949.542 435.629 949.542 436.536C949.542 437.443 949.361 438.248 948.998 438.952C948.646 439.645 948.161 440.184 947.542 440.568C946.934 440.952 946.251 441.144 945.494 441.144C944.833 441.144 944.251 441.016 943.75 440.76C943.259 440.493 942.865 440.152 942.566 439.736V441H940.326V429.16H942.566V433.432ZM947.254 436.536C947.254 436.003 947.142 435.544 946.918 435.16C946.705 434.765 946.417 434.467 946.054 434.264C945.702 434.061 945.318 433.96 944.902 433.96C944.497 433.96 944.113 434.067 943.75 434.28C943.398 434.483 943.11 434.781 942.886 435.176C942.673 435.571 942.566 436.035 942.566 436.568C942.566 437.101 942.673 437.565 942.886 437.96C943.11 438.355 943.398 438.659 943.75 438.872C944.113 439.075 944.497 439.176 944.902 439.176C945.318 439.176 945.702 439.069 946.054 438.856C946.417 438.643 946.705 438.339 946.918 437.944C947.142 437.549 947.254 437.08 947.254 436.536ZM954.85 433.512C955.138 433.043 955.511 432.675 955.97 432.408C956.439 432.141 956.972 432.008 957.57 432.008V434.36H956.978C956.274 434.36 955.74 434.525 955.378 434.856C955.026 435.187 954.85 435.763 954.85 436.584V441H952.61V432.136H954.85V433.512ZM961.654 431.08C961.26 431.08 960.929 430.957 960.662 430.712C960.406 430.456 960.278 430.141 960.278 429.768C960.278 429.395 960.406 429.085 960.662 428.84C960.929 428.584 961.26 428.456 961.654 428.456C962.049 428.456 962.374 428.584 962.63 428.84C962.897 429.085 963.03 429.395 963.03 429.768C963.03 430.141 962.897 430.456 962.63 430.712C962.374 430.957 962.049 431.08 961.654 431.08ZM962.758 432.136V441H960.518V432.136H962.758ZM968.651 429.16V441H966.411V429.16H968.651ZM976.981 436.536C976.981 435.64 977.157 434.845 977.509 434.152C977.872 433.459 978.362 432.925 978.981 432.552C979.6 432.179 980.288 431.992 981.045 431.992C981.621 431.992 982.17 432.12 982.693 432.376C983.216 432.621 983.632 432.952 983.941 433.368V429.16H986.213V441H983.941V439.688C983.664 440.125 983.274 440.477 982.773 440.744C982.272 441.011 981.69 441.144 981.029 441.144C980.282 441.144 979.6 440.952 978.981 440.568C978.362 440.184 977.872 439.645 977.509 438.952C977.157 438.248 976.981 437.443 976.981 436.536ZM983.957 436.568C983.957 436.024 983.85 435.56 983.637 435.176C983.424 434.781 983.136 434.483 982.773 434.28C982.41 434.067 982.021 433.96 981.605 433.96C981.189 433.96 980.805 434.061 980.453 434.264C980.101 434.467 979.813 434.765 979.589 435.16C979.376 435.544 979.269 436.003 979.269 436.536C979.269 437.069 979.376 437.539 979.589 437.944C979.813 438.339 980.101 438.643 980.453 438.856C980.816 439.069 981.2 439.176 981.605 439.176C982.021 439.176 982.41 439.075 982.773 438.872C983.136 438.659 983.424 438.36 983.637 437.976C983.85 437.581 983.957 437.112 983.957 436.568ZM998.081 436.376C998.081 436.696 998.06 436.984 998.017 437.24H991.537C991.59 437.88 991.814 438.381 992.209 438.744C992.604 439.107 993.089 439.288 993.665 439.288C994.497 439.288 995.089 438.931 995.441 438.216H997.857C997.601 439.069 997.11 439.773 996.385 440.328C995.66 440.872 994.769 441.144 993.713 441.144C992.86 441.144 992.092 440.957 991.409 440.584C990.737 440.2 990.209 439.661 989.825 438.968C989.452 438.275 989.265 437.475 989.265 436.568C989.265 435.651 989.452 434.845 989.825 434.152C990.198 433.459 990.721 432.925 991.393 432.552C992.065 432.179 992.838 431.992 993.713 431.992C994.556 431.992 995.308 432.173 995.969 432.536C996.641 432.899 997.158 433.416 997.521 434.088C997.894 434.749 998.081 435.512 998.081 436.376ZM995.761 435.736C995.75 435.16 995.542 434.701 995.137 434.36C994.732 434.008 994.236 433.832 993.649 433.832C993.094 433.832 992.625 434.003 992.241 434.344C991.868 434.675 991.638 435.139 991.553 435.736H995.761ZM1006.86 438.472C1007.88 437.619 1008.7 436.909 1009.3 436.344C1009.91 435.768 1010.42 435.171 1010.82 434.552C1011.23 433.933 1011.43 433.325 1011.43 432.728C1011.43 432.184 1011.3 431.757 1011.05 431.448C1010.79 431.139 1010.4 430.984 1009.86 430.984C1009.33 430.984 1008.92 431.165 1008.63 431.528C1008.34 431.88 1008.2 432.365 1008.18 432.984H1006.01C1006.05 431.704 1006.43 430.733 1007.14 430.072C1007.87 429.411 1008.79 429.08 1009.9 429.08C1011.11 429.08 1012.05 429.405 1012.7 430.056C1013.35 430.696 1013.67 431.544 1013.67 432.6C1013.67 433.432 1013.45 434.227 1013 434.984C1012.55 435.741 1012.04 436.403 1011.46 436.968C1010.89 437.523 1010.14 438.195 1009.21 438.984H1013.93V440.84H1006.02V439.176L1006.86 438.472ZM1016.78 435.016C1016.78 433.171 1017.11 431.725 1017.77 430.68C1018.44 429.635 1019.55 429.112 1021.1 429.112C1022.65 429.112 1023.75 429.635 1024.41 430.68C1025.08 431.725 1025.42 433.171 1025.42 435.016C1025.42 436.872 1025.08 438.328 1024.41 439.384C1023.75 440.44 1022.65 440.968 1021.1 440.968C1019.55 440.968 1018.44 440.44 1017.77 439.384C1017.11 438.328 1016.78 436.872 1016.78 435.016ZM1023.21 435.016C1023.21 434.227 1023.16 433.565 1023.05 433.032C1022.96 432.488 1022.75 432.045 1022.44 431.704C1022.15 431.363 1021.7 431.192 1021.1 431.192C1020.5 431.192 1020.05 431.363 1019.74 431.704C1019.44 432.045 1019.24 432.488 1019.13 433.032C1019.04 433.565 1018.99 434.227 1018.99 435.016C1018.99 435.827 1019.04 436.509 1019.13 437.064C1019.23 437.608 1019.43 438.051 1019.74 438.392C1020.05 438.723 1020.5 438.888 1021.1 438.888C1021.7 438.888 1022.15 438.723 1022.46 438.392C1022.77 438.051 1022.97 437.608 1023.07 437.064C1023.16 436.509 1023.21 435.827 1023.21 435.016ZM1029.27 438.472C1030.29 437.619 1031.11 436.909 1031.72 436.344C1032.32 435.768 1032.83 435.171 1033.24 434.552C1033.64 433.933 1033.84 433.325 1033.84 432.728C1033.84 432.184 1033.72 431.757 1033.46 431.448C1033.2 431.139 1032.81 430.984 1032.28 430.984C1031.74 430.984 1031.33 431.165 1031.04 431.528C1030.76 431.88 1030.61 432.365 1030.6 432.984H1028.42C1028.46 431.704 1028.84 430.733 1029.56 430.072C1030.28 429.411 1031.2 429.08 1032.31 429.08C1033.52 429.08 1034.46 429.405 1035.11 430.056C1035.76 430.696 1036.08 431.544 1036.08 432.6C1036.08 433.432 1035.86 434.227 1035.41 434.984C1034.96 435.741 1034.45 436.403 1033.88 436.968C1033.3 437.523 1032.55 438.195 1031.62 438.984H1036.34V440.84H1028.44V439.176L1029.27 438.472ZM1039.22 432.408C1039.28 431.341 1039.65 430.52 1040.34 429.944C1041.05 429.357 1041.97 429.064 1043.11 429.064C1043.89 429.064 1044.56 429.203 1045.11 429.48C1045.67 429.747 1046.08 430.115 1046.36 430.584C1046.65 431.043 1046.79 431.565 1046.79 432.152C1046.79 432.824 1046.62 433.395 1046.26 433.864C1045.92 434.323 1045.51 434.632 1045.03 434.792V434.856C1045.65 435.048 1046.13 435.389 1046.47 435.88C1046.82 436.371 1047 437 1047 437.768C1047 438.408 1046.85 438.979 1046.55 439.48C1046.26 439.981 1045.83 440.376 1045.26 440.664C1044.69 440.941 1044.01 441.08 1043.21 441.08C1042 441.08 1041.02 440.776 1040.26 440.168C1039.51 439.56 1039.11 438.664 1039.06 437.48H1041.24C1041.26 438.003 1041.44 438.424 1041.77 438.744C1042.11 439.053 1042.57 439.208 1043.16 439.208C1043.7 439.208 1044.12 439.059 1044.41 438.76C1044.71 438.451 1044.86 438.056 1044.86 437.576C1044.86 436.936 1044.65 436.477 1044.25 436.2C1043.84 435.923 1043.21 435.784 1042.36 435.784H1041.9V433.944H1042.36C1043.87 433.944 1044.63 433.437 1044.63 432.424C1044.63 431.965 1044.49 431.608 1044.22 431.352C1043.95 431.096 1043.56 430.968 1043.05 430.968C1042.55 430.968 1042.16 431.107 1041.88 431.384C1041.61 431.651 1041.46 431.992 1041.42 432.408H1039.22Z" fill="white"/>
</svg>
